<?xml version="1.0" encoding="utf-8"?>
<!-- Generator: Adobe Illustrator 17.1.0, SVG Export Plug-In . SVG Version: 6.00 Build 0)  -->
<!DOCTYPE svg PUBLIC "-//W3C//DTD SVG 1.1//EN" "http://www.w3.org/Graphics/SVG/1.1/DTD/svg11.dtd">
<svg version="1.1" id="Слой_1" xmlns="http://www.w3.org/2000/svg" xmlns:xlink="http://www.w3.org/1999/xlink" x="0px" y="0px"
	 viewBox="0 0 55.2 47.3" enable-background="new 0 0 55.2 47.3" xml:space="preserve">
<g>
	<path fill="#E20917" d="M53.1,11.3L53.1,11.3c1.4-0.5,2.2-1.9,2.2-3.3c0-2.2-1.8-3.9-4.6-3.9c-2.8,0-4.7,1.6-4.8,4.1l2.6,0
		c0.1-1.3,0.9-2,2.2-2c1.3,0,2.2,0.8,2.2,1.9c0,1.3-0.9,1.8-2.4,1.8l-0.4,0v2.3l0.3,0c1.5,0,2,0.8,2,1.6c0,1.1-0.9,1.7-2,1.7
		c-0.3,0-0.6,0-0.9-0.1l-0.6,1.9c0.6,0.1,1.1,0.2,1.7,0.2c2.2,0,4.1-1.1,4.1-3.4C54.7,12.7,54,11.7,53.1,11.3L53.1,11.3z"/>
	<polygon fill="#E20917" points="0,0 14.6,0 14.6,4.5 5,4.5 5,12.4 14.6,12.4 14.6,16.9 5,16.9 5,47.3 0,47.3 0,0 	"/>
	<path fill="#181F20" d="M43.6,15.7c-1.2,0-2.1-0.7-2.1-1.7c0-1.5,1.4-1.8,2.2-1.8h2v1.3C45.8,15,45,15.7,43.6,15.7L43.6,15.7z
		 M48.4,9.9V8.2h-2.6v1.7h-1.9c-1.7,0-1.8-1.2-1.8-1.6c0-1,0.7-1.6,1.8-1.6c0.3,0,0.6,0,0.8,0.1l0.1,0l0.7-2.2l-0.2,0
		c-0.5-0.1-1.1-0.2-1.7-0.2c-2.6,0-4.3,1.4-4.3,3.6c0,1.2,0.5,2.3,1.5,2.8c-1.2,0.6-2,1.8-2,3.3c0,2.3,2,4,4.8,4
		c3,0,4.8-1.7,4.8-4.6v-1.4h1.7V9.9H48.4L48.4,9.9z"/>
	<path fill="#181F20" d="M17.6,0h3.2v13.1c0,1.4,0.5,1.8,1.3,1.8c0.1,0,0.3,0,0.5,0v2.9c-0.2,0-0.6,0.1-1,0.1c-1.8,0-4-0.5-4-4.2V0
		L17.6,0z"/>
	<path fill="#181F20" d="M49.9,36.9c-2.2,0-3,1.6-3,4v6.4h1.2h3.9v-8C51.9,37.9,51.2,36.9,49.9,36.9L49.9,36.9z"/>
	<path fill="#181F20" d="M43.7,39.9c0-1.7-0.6-3-2.2-3c-2.3,0-3,1.8-3,3.7v6.7H39h1.6h3.1V39.9L43.7,39.9z"/>
	<path fill="#181F20" d="M25.2,32H22v-2.9h3.2V32L25.2,32z M31.3,22c-1.4,1.6-3.2,2.5-5.4,2.5c-2.3,0-4-1.2-4.1-1.3l-0.1,0l0,0
		l-0.7-0.6L20.5,22H9.7v7.1h9.4v4.5H9.7v13.6H22v-13h3.2v13h5.4C29.3,47,28,46,28,43.2V29.1h3.2v13.6c0,1.4,0.5,1.8,1.3,1.8
		c0.3,0,0.5,0,0.7-0.1v2.8h2v-13h3.1v2.1c0-0.9,1.6-2.4,3.9-2.4c2,0,3.5,0.9,4,2.7h0.1c0.7-1.4,2.2-2.7,4.3-2.7c0.5,0,1,0.1,1.5,0.2
		V22H31.3L31.3,22z"/>
	<path fill="#181F20" d="M25.7,20.2c0.9,0,1.8-0.5,2.3-1.7l0.5-1.1L22.9,4.5h3.6l2.7,7.5c0.3,0.7,0.5,1.6,0.5,1.6s0.2-0.8,0.4-1.5
		l2.6-7.6h3.5l-5.8,15c-0.9,2.4-2.8,3.4-4.7,3.4c-1.6,0-2.7-0.8-2.7-0.8l1.1-2.4C24.3,19.6,25,20.2,25.7,20.2L25.7,20.2z"/>
</g>
</svg>
